# xmcd
#
# Track frame offsets: 
#        150
#        25382
#        52785
#        78585
#        96265
#        116912
#        143475
#        177890
#        199385
#        232202
#        261470
#        293922
#
# Disc length: 4265 seconds
#
# Revision: 0
# Processed by: cddbd v1.5.2PL0 Copyright (c) Steve Scherf et al.
# Submitted via: ExactAudioCopyFreeDBPlugin 1.0
#
DISCID=b310a70c
DTITLE=tomobe masato - 友部正人 - ぼくの展覧会 (live CD3)
DYEAR=1993
DGENRE=Pop
TTITLE0=乾杯
TTITLE1=絵はがき
TTITLE2=密漁の夜
TTITLE3=長いうで
TTITLE4=Bring It On Home To Me
TTITLE5=おしゃべりなカラス
TTITLE6=遠来
TTITLE7=20世紀という芝居
TTITLE8=君はこんな言い方嫌かもしれないけど
TTITLE9=ぼくは君を探しに来たんだ
TTITLE10=まちは裸ですわりこんでいる
TTITLE11=熱くならない魂を持つ人はかわいそうだ
EXTD=
EXTT0=
EXTT1=
EXTT2=
EXTT3=
EXTT4=
EXTT5=
EXTT6=
EXTT7=
EXTT8=
EXTT9=
EXTT10=
EXTT11=
PLAYORDER=
